# Blender v2.79 (sub 0) OBJ File: 'basic_test.blend'
# www.blender.org
mtllib basic_test.mtl
o Cube_Cube.001
v -1.906858 0.720657 1.971915
v -1.873032 2.719003 1.897968
v -1.854569 0.645841 -0.026001
v -1.820742 2.644187 -0.099948
v 0.092172 0.688799 2.025426
v 0.125998 2.687145 1.951480
v 0.144461 0.613983 0.027510
v 0.178288 2.612329 -0.046436
vn -0.9995 0.0159 -0.0268
vn 0.0261 -0.0374 -0.9990
vn 0.9995 -0.0159 0.0268
vn -0.0261 0.0374 0.9990
vn -0.0169 -0.9992 0.0370
vn 0.0169 0.9992 -0.0370
usemtl None
s off
f 1//1 2//1 4//1 3//1
f 3//2 4//2 8//2 7//2
f 7//3 8//3 6//3 5//3
f 5//4 6//4 2//4 1//4
f 3//5 7//5 5//5 1//5
f 8//6 4//6 2//6 6//6
o Plane.001
v -4.170372 -1.699617 5.738811
v -3.486029 8.418385 5.682782
v -3.492374 -1.801503 -4.379258
v -2.808031 8.316498 -4.435287
vn -0.9955 0.0670 -0.0674
usemtl None
s off
f 9//7 10//7 12//7 11//7
o Plane
v -6.083006 0.684917 6.372805
v 5.603799 0.684917 6.372805
v -6.083006 0.684917 -5.314000
v 5.603799 0.684917 -5.314000
vn 0.0000 1.0000 0.0000
usemtl None
s off
f 13//8 14//8 16//8 15//8
